<svg id="Layer_1" data-name="Layer 1" xmlns="http://www.w3.org/2000/svg" viewBox="0 0 594.81 150.582">
    <defs>
        <style>.cls-1{fill:#000;}</style>
    </defs>
    <g id="SvgjsG2900">
        <path class="cls-1"
              d="M143.352,261.766H110.411v4.7a4.717,4.717,0,0,1,4.7,4.7v4.711a4.716,4.716,0,0,1-4.7,4.7H25.7a4.714,4.714,0,0,1-4.7-4.7v-4.711a4.718,4.718,0,0,1,4.7-4.7V160.585a4.716,4.716,0,0,1-4.7-4.7v-4.7a4.719,4.719,0,0,1,4.7-4.707H49.233V134.706A4.72,4.72,0,0,1,53.939,130H82.174a4.72,4.72,0,0,1,4.706,4.706V146.47h23.531a4.719,4.719,0,0,1,4.7,4.707v4.7a4.716,4.716,0,0,1-4.7,4.7v4.708h82.353a14.152,14.152,0,0,1,14.114,14.117v40a14.151,14.151,0,0,1-14.114,14.118H171.585a14.162,14.162,0,0,0-14.117,14.118A14.162,14.162,0,0,1,143.352,261.766ZM25.7,155.881h84.707v-4.7H25.7Zm0,120h84.707v-4.711H25.7Zm4.706-18.831v9.418h75.3V160.585H30.41V170H82.176v87.055Zm0-4.7H77.47V174.705H30.41ZM82.176,134.7H53.941v11.764H82.176Zm89.409,94.121h21.179a9.439,9.439,0,0,0,9.41-9.418v-40a9.436,9.436,0,0,0-9.41-9.413H110.411v87.055h32.941a9.433,9.433,0,0,0,9.41-9.41A18.876,18.876,0,0,1,171.585,228.825Zm-49.412-51.767c3.293,0,4.708,1.412,4.708,4.706s-1.415,4.7-4.708,4.7-4.7-1.413-4.7-4.7S118.882,177.058,122.173,177.058Zm0,63.532c3.293,0,4.708,1.408,4.708,4.7S125.466,250,122.173,250s-4.7-1.411-4.7-4.711S118.882,240.59,122.173,240.59Zm16.469-63.532c3.3,0,4.708,1.412,4.708,4.706s-1.407,4.7-4.708,4.7-4.7-1.413-4.7-4.7S135.353,177.058,138.642,177.058Zm0,63.532c3.3,0,4.708,1.408,4.708,4.7S141.943,250,138.642,250s-4.7-1.411-4.7-4.711S135.353,240.59,138.642,240.59Zm16.472-63.532c3.293,0,4.708,1.412,4.708,4.706s-1.415,4.7-4.708,4.7-4.7-1.413-4.7-4.7S151.821,177.058,155.114,177.058Zm16.471,0c3.293,0,4.708,1.412,4.708,4.706s-1.415,4.7-4.708,4.7-4.7-1.413-4.7-4.7S168.291,177.058,171.585,177.058Zm16.47,0c3.293,0,4.708,1.412,4.708,4.706s-1.415,4.7-4.708,4.7-4.7-1.413-4.7-4.7S184.762,177.058,188.055,177.058Z"
              transform="translate(-21 -130)"/>
    </g>
    <g id="SvgjsG2901">
        <path class="cls-1"
              d="M264.25,179.033c5.323,0,9.316,1.487,11.977,4.384,2.349,2.583,3.523,6.419,3.523,11.115v20.745c0,9.472-5.48,15.421-15.5,15.421H244.68a.639.639,0,0,1-.626-.7V179.737a.639.639,0,0,1,.626-.7Zm5.245,33.9V196.881c0-4.932-2.583-8.063-8.063-8.063h-7.045v32.1h7.045C266.129,220.913,269.5,217.86,269.5,212.929Zm-20.666-29.121v42.115c0,.313.313.392.47.392h12.759c9,0,13.073-5.4,13.073-10.412v-20.04c0-8.3-4.383-12.525-13.307-12.525H249.3A.444.444,0,0,0,248.829,183.808Zm25.363,12.055V215.9c0,6.263-6.262,9.55-12.134,9.55h-12.29v-41.1h12.056C270.043,184.356,274.192,188.035,274.192,195.863Zm29.042-16.36a.587.587,0,0,1,.548-.47h9.707a.586.586,0,0,1,.548.47l13.543,50.334a.707.707,0,0,1-.7.861h-8.924a.571.571,0,0,1-.548-.469l-3.053-10.96H302.921l-2.975,10.96a.516.516,0,0,1-.547.469h-9a.707.707,0,0,1-.7-.861Zm2.192,30.059h6.5l-3.366-11.82Zm12.055,4.619,3.6,11.742c.157.47,1.018.392.783-.235L309.34,184.043a.907.907,0,0,0-1.8,0l-12.134,41.645c-.235.548.626.783.861.313l3.445-11.82Zm-17.535-1.018,8.533-28.807,8.689,28.807Zm67.948-2.9a10.088,10.088,0,0,1-4.853,5.01l6.576,14.482a.625.625,0,0,1-.548.939H359.44a.521.521,0,0,1-.548-.391L352.786,217h-3.992v13a.7.7,0,0,1-.7.7h-9a.632.632,0,0,1-.548-.7V179.737a.632.632,0,0,1,.548-.7h16.282c8.69,0,13.934,4.932,13.934,14.09v9.864A17.244,17.244,0,0,1,367.894,210.267Zm-8.845-9.707v-5.088c0-5.48-2.036-6.028-7.985-6.028h-2.27v17.3h2.27C356,206.744,358.892,206.666,359.049,200.56Zm-14.795,25.363V212.537h11.272L362.1,226.08c.156.391,1.1.235.861-.47L356.387,212.3c6.106-.861,8.22-4.07,8.22-9.863v-9.785c0-8.611-7.829-9.316-10.255-9.316H343.784a.582.582,0,0,0-.47.47v42.115C343.314,226.471,344.254,226.471,344.254,225.923Zm19.413-33.269v9.785c0,7.985-5.088,9.08-10.02,9.08h-9.393V184.356h10.1C362.806,184.356,363.667,190.07,363.667,192.654Zm52.37-13.621a.694.694,0,0,1,.548,1.1L404.3,197.116l13,32.721a.622.622,0,0,1-.627.861H406.1a.571.571,0,0,1-.548-.469l-8.142-23.406-3.992,5.479v17.692a.7.7,0,0,1-.7.7h-8.924a.639.639,0,0,1-.626-.7V179.737a.639.639,0,0,1,.626-.7h8.924a.7.7,0,0,1,.7.7v16.205l12.29-16.6a.575.575,0,0,1,.626-.313Zm-28.181,4.7v42.193a.431.431,0,0,0,.861,0V210.737l9.785-13,10.96,28.338c.156.391,1.1.156.861-.47l-11.116-28.886,10.176-13.542c.392-.392-.313-1.1-.783-.626l-19.883,26.615V183.73A.431.431,0,0,0,387.856,183.73ZM458,210.267a10.09,10.09,0,0,1-4.854,5.01l6.576,14.482a.624.624,0,0,1-.548.939h-9.629a.522.522,0,0,1-.548-.391L442.888,217H438.9v13a.7.7,0,0,1-.7.7h-9a.632.632,0,0,1-.548-.7V179.737a.632.632,0,0,1,.548-.7h16.283c8.689,0,13.934,4.932,13.934,14.09v9.864A17.259,17.259,0,0,1,458,210.267Zm-8.846-9.707v-5.088c0-5.48-2.035-6.028-7.985-6.028H438.9v17.3h2.27C446.1,206.744,448.993,206.666,449.15,200.56Zm-14.795,25.363V212.537h11.272L452.2,226.08c.157.391,1.1.235.861-.47L446.489,212.3c6.105-.861,8.219-4.07,8.219-9.863v-9.785c0-8.611-7.828-9.316-10.255-9.316H433.885a.582.582,0,0,0-.469.47v42.115C433.416,226.471,434.355,226.471,434.355,225.923Zm19.414-33.269v9.785c0,7.985-5.089,9.08-10.02,9.08h-9.394V184.356h10.1C452.908,184.356,453.769,190.07,453.769,192.654Zm36.479-14.326c6.732,0,11.429,1.488,14.4,4.7,2.349,2.583,3.445,6.263,3.445,11.507V215.12c0,5.4-1.1,9.159-3.445,11.664-3.053,3.132-7.671,4.7-14.4,4.7-6.967,0-11.508-1.565-14.482-4.7-2.271-2.5-3.523-6.262-3.523-11.664V194.532c0-5.244,1.252-8.924,3.523-11.585C478.819,179.816,483.437,178.328,490.248,178.328Zm7.436,34.444V197.116c0-6.889-3.679-8.3-7.045-8.3H489.7c-5.01,0-6.967,3.21-6.967,8.3v15.656c0,6.889,3.679,8.376,6.967,8.376h.939C495.649,221.148,497.606,217.782,497.684,212.772ZM477.175,195.08v19.414c0,3.679.939,6.732,3.131,9,2.035,2.036,5.166,3.132,9,3.132h2.035c7.359,0,12.134-4.7,12.134-12.134V195.08c0-7.984-4.227-12.29-12.134-12.29h-2.035C481.324,182.79,477.175,187.1,477.175,195.08Zm14.168,30.53h-2.035c-3.679,0-6.419-.939-8.376-2.9s-2.975-4.7-2.975-8.22V195.08c0-7.436,3.993-11.35,11.351-11.35h2.035c7.437,0,11.116,3.835,11.116,11.35v19.414a11.275,11.275,0,0,1-3.131,8.3,12.215,12.215,0,0,1-7.985,2.818Zm47.439-47.282c6.732,0,11.429,1.488,14.4,4.7,2.349,2.583,3.445,6.263,3.445,11.507V215.12c0,5.4-1.1,9.159-3.445,11.664-3.052,3.132-7.671,4.7-14.4,4.7-6.967,0-11.508-1.565-14.482-4.7-2.27-2.5-3.523-6.262-3.523-11.664V194.532c0-5.244,1.253-8.924,3.523-11.585C527.353,179.816,531.971,178.328,538.782,178.328Zm7.436,34.444V197.116c0-6.889-3.679-8.3-7.045-8.3h-.939c-5.01,0-6.967,3.21-6.967,8.3v15.656c0,6.889,3.679,8.376,6.967,8.376h.939C544.183,221.148,546.14,217.782,546.218,212.772ZM525.709,195.08v19.414c0,3.679.939,6.732,3.131,9,2.035,2.036,5.167,3.132,9,3.132h2.036c7.358,0,12.133-4.7,12.133-12.134V195.08c0-7.984-4.227-12.29-12.133-12.29h-2.036c-7.984,0-12.133,4.306-12.133,12.29Zm14.169,30.53h-2.036c-3.679,0-6.419-.939-8.376-2.9s-2.974-4.7-2.974-8.22V195.08c0-7.436,3.992-11.35,11.35-11.35h2.036c7.436,0,11.116,3.835,11.116,11.35v19.414a11.275,11.275,0,0,1-3.132,8.3,12.214,12.214,0,0,1-7.984,2.818Zm75.228-46.577a.7.7,0,0,1,.7.7v50.257a.7.7,0,0,1-.7.7h-8.533a.755.755,0,0,1-.626-.7V201.03l-8.611,29.2c-.157.313-.313.469-.626.469h-6.185a.656.656,0,0,1-.626-.469l-8.063-29.747v29.512a.7.7,0,0,1-.7.7h-8.689c-.314,0-.548-.313-.548-.7V179.737c0-.391.234-.7.548-.7H583.4a.792.792,0,0,1,.7.47l9.472,31.7,10.412-31.7a.524.524,0,0,1,.548-.47Zm-4.854,46.89c0,.548,1.018.7,1.018,0V183.73a.508.508,0,0,0-.47-.392h-3.679c-.313,0-.391.235-.548.392l-13,38.749-12.916-38.828c0-.234-.156-.313-.391-.313h-3.836a.505.505,0,0,0-.47.47v42.115c0,.548,1.018.7,1.018,0V184.356h2.9l13.23,39.767c.313.548.548.391.939,0l13.308-39.767h2.9v41.567Z"
              transform="translate(-21 -130)"/>
    </g>
    <g id="SvgjsG2900-2" data-name="SvgjsG2900">
        <path class="cls-1"
              d="M143.352,261.766H110.411v4.7a4.717,4.717,0,0,1,4.7,4.7v4.711a4.716,4.716,0,0,1-4.7,4.7H25.7a4.714,4.714,0,0,1-4.7-4.7v-4.711a4.718,4.718,0,0,1,4.7-4.7V160.585a4.716,4.716,0,0,1-4.7-4.7v-4.7a4.719,4.719,0,0,1,4.7-4.707H49.233V134.706A4.72,4.72,0,0,1,53.939,130H82.174a4.72,4.72,0,0,1,4.706,4.706V146.47h23.531a4.719,4.719,0,0,1,4.7,4.707v4.7a4.716,4.716,0,0,1-4.7,4.7v4.708h82.353a14.152,14.152,0,0,1,14.114,14.117v40a14.151,14.151,0,0,1-14.114,14.118H171.585a14.162,14.162,0,0,0-14.117,14.118A14.162,14.162,0,0,1,143.352,261.766ZM25.7,155.881h84.707v-4.7H25.7Zm0,120h84.707v-4.711H25.7Zm4.706-18.831v9.418h75.3V160.585H30.41V170H82.176v87.055Zm0-4.7H77.47V174.705H30.41ZM82.176,134.7H53.941v11.764H82.176Zm89.409,94.121h21.179a9.439,9.439,0,0,0,9.41-9.418v-40a9.436,9.436,0,0,0-9.41-9.413H110.411v87.055h32.941a9.433,9.433,0,0,0,9.41-9.41A18.876,18.876,0,0,1,171.585,228.825Zm-49.412-51.767c3.293,0,4.708,1.412,4.708,4.706s-1.415,4.7-4.708,4.7-4.7-1.413-4.7-4.7S118.882,177.058,122.173,177.058Zm0,63.532c3.293,0,4.708,1.408,4.708,4.7S125.466,250,122.173,250s-4.7-1.411-4.7-4.711S118.882,240.59,122.173,240.59Zm16.469-63.532c3.3,0,4.708,1.412,4.708,4.706s-1.407,4.7-4.708,4.7-4.7-1.413-4.7-4.7S135.353,177.058,138.642,177.058Zm0,63.532c3.3,0,4.708,1.408,4.708,4.7S141.943,250,138.642,250s-4.7-1.411-4.7-4.711S135.353,240.59,138.642,240.59Zm16.472-63.532c3.293,0,4.708,1.412,4.708,4.706s-1.415,4.7-4.708,4.7-4.7-1.413-4.7-4.7S151.821,177.058,155.114,177.058Zm16.471,0c3.293,0,4.708,1.412,4.708,4.706s-1.415,4.7-4.708,4.7-4.7-1.413-4.7-4.7S168.291,177.058,171.585,177.058Zm16.47,0c3.293,0,4.708,1.412,4.708,4.706s-1.415,4.7-4.708,4.7-4.7-1.413-4.7-4.7S184.762,177.058,188.055,177.058Z"
              transform="translate(-21 -130)"/>
    </g>
    <g id="SvgjsG2901-2" data-name="SvgjsG2901">
        <path class="cls-1"
              d="M264.25,179.033c5.323,0,9.316,1.487,11.977,4.384,2.349,2.583,3.523,6.419,3.523,11.115v20.745c0,9.472-5.48,15.421-15.5,15.421H244.68a.639.639,0,0,1-.626-.7V179.737a.639.639,0,0,1,.626-.7Zm5.245,33.9V196.881c0-4.932-2.583-8.063-8.063-8.063h-7.045v32.1h7.045C266.129,220.913,269.5,217.86,269.5,212.929Zm-20.666-29.121v42.115c0,.313.313.392.47.392h12.759c9,0,13.073-5.4,13.073-10.412v-20.04c0-8.3-4.383-12.525-13.307-12.525H249.3A.444.444,0,0,0,248.829,183.808Zm25.363,12.055V215.9c0,6.263-6.262,9.55-12.134,9.55h-12.29v-41.1h12.056C270.043,184.356,274.192,188.035,274.192,195.863Zm29.042-16.36a.587.587,0,0,1,.548-.47h9.707a.586.586,0,0,1,.548.47l13.543,50.334a.707.707,0,0,1-.7.861h-8.924a.571.571,0,0,1-.548-.469l-3.053-10.96H302.921l-2.975,10.96a.516.516,0,0,1-.547.469h-9a.707.707,0,0,1-.7-.861Zm2.192,30.059h6.5l-3.366-11.82Zm12.055,4.619,3.6,11.742c.157.47,1.018.392.783-.235L309.34,184.043a.907.907,0,0,0-1.8,0l-12.134,41.645c-.235.548.626.783.861.313l3.445-11.82Zm-17.535-1.018,8.533-28.807,8.689,28.807Zm67.948-2.9a10.088,10.088,0,0,1-4.853,5.01l6.576,14.482a.625.625,0,0,1-.548.939H359.44a.521.521,0,0,1-.548-.391L352.786,217h-3.992v13a.7.7,0,0,1-.7.7h-9a.632.632,0,0,1-.548-.7V179.737a.632.632,0,0,1,.548-.7h16.282c8.69,0,13.934,4.932,13.934,14.09v9.864A17.244,17.244,0,0,1,367.894,210.267Zm-8.845-9.707v-5.088c0-5.48-2.036-6.028-7.985-6.028h-2.27v17.3h2.27C356,206.744,358.892,206.666,359.049,200.56Zm-14.795,25.363V212.537h11.272L362.1,226.08c.156.391,1.1.235.861-.47L356.387,212.3c6.106-.861,8.22-4.07,8.22-9.863v-9.785c0-8.611-7.829-9.316-10.255-9.316H343.784a.582.582,0,0,0-.47.47v42.115C343.314,226.471,344.254,226.471,344.254,225.923Zm19.413-33.269v9.785c0,7.985-5.088,9.08-10.02,9.08h-9.393V184.356h10.1C362.806,184.356,363.667,190.07,363.667,192.654Zm52.37-13.621a.694.694,0,0,1,.548,1.1L404.3,197.116l13,32.721a.622.622,0,0,1-.627.861H406.1a.571.571,0,0,1-.548-.469l-8.142-23.406-3.992,5.479v17.692a.7.7,0,0,1-.7.7h-8.924a.639.639,0,0,1-.626-.7V179.737a.639.639,0,0,1,.626-.7h8.924a.7.7,0,0,1,.7.7v16.205l12.29-16.6a.575.575,0,0,1,.626-.313Zm-28.181,4.7v42.193a.431.431,0,0,0,.861,0V210.737l9.785-13,10.96,28.338c.156.391,1.1.156.861-.47l-11.116-28.886,10.176-13.542c.392-.392-.313-1.1-.783-.626l-19.883,26.615V183.73A.431.431,0,0,0,387.856,183.73ZM458,210.267a10.09,10.09,0,0,1-4.854,5.01l6.576,14.482a.624.624,0,0,1-.548.939h-9.629a.522.522,0,0,1-.548-.391L442.888,217H438.9v13a.7.7,0,0,1-.7.7h-9a.632.632,0,0,1-.548-.7V179.737a.632.632,0,0,1,.548-.7h16.283c8.689,0,13.934,4.932,13.934,14.09v9.864A17.259,17.259,0,0,1,458,210.267Zm-8.846-9.707v-5.088c0-5.48-2.035-6.028-7.985-6.028H438.9v17.3h2.27C446.1,206.744,448.993,206.666,449.15,200.56Zm-14.795,25.363V212.537h11.272L452.2,226.08c.157.391,1.1.235.861-.47L446.489,212.3c6.105-.861,8.219-4.07,8.219-9.863v-9.785c0-8.611-7.828-9.316-10.255-9.316H433.885a.582.582,0,0,0-.469.47v42.115C433.416,226.471,434.355,226.471,434.355,225.923Zm19.414-33.269v9.785c0,7.985-5.089,9.08-10.02,9.08h-9.394V184.356h10.1C452.908,184.356,453.769,190.07,453.769,192.654Zm36.479-14.326c6.732,0,11.429,1.488,14.4,4.7,2.349,2.583,3.445,6.263,3.445,11.507V215.12c0,5.4-1.1,9.159-3.445,11.664-3.053,3.132-7.671,4.7-14.4,4.7-6.967,0-11.508-1.565-14.482-4.7-2.271-2.5-3.523-6.262-3.523-11.664V194.532c0-5.244,1.252-8.924,3.523-11.585C478.819,179.816,483.437,178.328,490.248,178.328Zm7.436,34.444V197.116c0-6.889-3.679-8.3-7.045-8.3H489.7c-5.01,0-6.967,3.21-6.967,8.3v15.656c0,6.889,3.679,8.376,6.967,8.376h.939C495.649,221.148,497.606,217.782,497.684,212.772ZM477.175,195.08v19.414c0,3.679.939,6.732,3.131,9,2.035,2.036,5.166,3.132,9,3.132h2.035c7.359,0,12.134-4.7,12.134-12.134V195.08c0-7.984-4.227-12.29-12.134-12.29h-2.035C481.324,182.79,477.175,187.1,477.175,195.08Zm14.168,30.53h-2.035c-3.679,0-6.419-.939-8.376-2.9s-2.975-4.7-2.975-8.22V195.08c0-7.436,3.993-11.35,11.351-11.35h2.035c7.437,0,11.116,3.835,11.116,11.35v19.414a11.275,11.275,0,0,1-3.131,8.3,12.215,12.215,0,0,1-7.985,2.818Zm47.439-47.282c6.732,0,11.429,1.488,14.4,4.7,2.349,2.583,3.445,6.263,3.445,11.507V215.12c0,5.4-1.1,9.159-3.445,11.664-3.052,3.132-7.671,4.7-14.4,4.7-6.967,0-11.508-1.565-14.482-4.7-2.27-2.5-3.523-6.262-3.523-11.664V194.532c0-5.244,1.253-8.924,3.523-11.585C527.353,179.816,531.971,178.328,538.782,178.328Zm7.436,34.444V197.116c0-6.889-3.679-8.3-7.045-8.3h-.939c-5.01,0-6.967,3.21-6.967,8.3v15.656c0,6.889,3.679,8.376,6.967,8.376h.939C544.183,221.148,546.14,217.782,546.218,212.772ZM525.709,195.08v19.414c0,3.679.939,6.732,3.131,9,2.035,2.036,5.167,3.132,9,3.132h2.036c7.358,0,12.133-4.7,12.133-12.134V195.08c0-7.984-4.227-12.29-12.133-12.29h-2.036c-7.984,0-12.133,4.306-12.133,12.29Zm14.169,30.53h-2.036c-3.679,0-6.419-.939-8.376-2.9s-2.974-4.7-2.974-8.22V195.08c0-7.436,3.992-11.35,11.35-11.35h2.036c7.436,0,11.116,3.835,11.116,11.35v19.414a11.275,11.275,0,0,1-3.132,8.3,12.214,12.214,0,0,1-7.984,2.818Zm75.228-46.577a.7.7,0,0,1,.7.7v50.257a.7.7,0,0,1-.7.7h-8.533a.755.755,0,0,1-.626-.7V201.03l-8.611,29.2c-.157.313-.313.469-.626.469h-6.185a.656.656,0,0,1-.626-.469l-8.063-29.747v29.512a.7.7,0,0,1-.7.7h-8.689c-.314,0-.548-.313-.548-.7V179.737c0-.391.234-.7.548-.7H583.4a.792.792,0,0,1,.7.47l9.472,31.7,10.412-31.7a.524.524,0,0,1,.548-.47Zm-4.854,46.89c0,.548,1.018.7,1.018,0V183.73a.508.508,0,0,0-.47-.392h-3.679c-.313,0-.391.235-.548.392l-13,38.749-12.916-38.828c0-.234-.156-.313-.391-.313h-3.836a.505.505,0,0,0-.47.47v42.115c0,.548,1.018.7,1.018,0V184.356h2.9l13.23,39.767c.313.548.548.391.939,0l13.308-39.767h2.9v41.567Z"
              transform="translate(-21 -130)"/>
    </g>
</svg>